<svg xmlns="http://www.w3.org/2000/svg" xmlns:svgjs="http://svgjs.com/svgjs" xmlns:xlink="http://www.w3.org/1999/xlink" width="288" height="288"><svg xmlns="http://www.w3.org/2000/svg" width="288" height="288" viewBox="0 0 64 64"><g fill="#fff" class="color000 svgShape" data-name="arrow-refresh-transfer-user interface-interface"><path d="M59.008 34a2.921 2.921 0 00-2.208-1.023h-.116a3.032 3.032 0 00-2.966 2.616 21.653 21.653 0 01-15.968 17.678 22.064 22.064 0 01-23.792-8.7 1 1 0 01.822-1.571h5.22a2 2 0 000-4h-16v16a2 2 0 004 0v-5.34a1 1 0 011.793-.608 28 28 0 0049.874-12.721 2.9 2.9 0 00-.659-2.331zM44 25h16v-16a2 2 0 00-4 0v5.34a1 1 0 01-1.793.608 28 28 0 00-49.853 12.582 3.006 3.006 0 002.971 3.47 3.029 3.029 0 002.966-2.588 21.993 21.993 0 0139.751-8.983 1 1 0 01-.822 1.571h-5.22a2 2 0 000 4z" class="color000 svgShape"/></g></svg></svg>